<svg version="1.1" id="Layer_1" xmlns="http://www.w3.org/2000/svg" xmlns:xlink="http://www.w3.org/1999/xlink" viewBox="0 0 512 512" xml:space="preserve" fill="#00306b" stroke="#00306b"><g id="SVGRepo_bgCarrier" stroke-width="0"></g><g id="SVGRepo_tracerCarrier" stroke-linecap="round" stroke-linejoin="round"></g><g id="SVGRepo_iconCarrier"> <g> <rect style="fill:#57A4FF;" width="66.783" height="33.391"></rect> <polygon style="fill:#57A4FF;" points="200.348,478.609 200.348,512 256,512 256,478.609 289.391,478.609 289.391,422.957 356.174,422.957 356.174,478.609 389.565,478.609 389.565,512 445.217,512 445.217,478.609 478.609,478.609 478.609,422.957 445.217,422.957 445.217,389.565 166.957,389.565 166.957,478.609 "></polygon> <polygon style="fill:#57A4FF;" points="100.174,89.043 100.174,33.391 66.783,33.391 66.783,122.435 100.174,122.435 100.174,222.609 133.565,222.609 133.565,389.565 166.957,389.565 166.957,356.174 445.217,356.174 445.217,322.783 478.609,322.783 478.609,222.609 512,222.609 512,89.043 "></polygon> </g> <g> <polygon style="fill:#00479B;" points="289.391,422.957 256,422.957 256,389.565 200.348,389.565 200.348,422.957 166.957,422.957 166.957,478.609 200.348,478.609 200.348,512 256,512 256,478.609 289.391,478.609 "></polygon> <polygon style="fill:#00479B;" points="478.609,422.957 445.217,422.957 445.217,389.565 389.565,389.565 389.565,422.957 356.174,422.957 356.174,478.609 389.565,478.609 389.565,512 445.217,512 445.217,478.609 478.609,478.609 "></polygon> </g> <polygon style="fill:#00479B;" points="512,189.217 389.565,189.217 389.565,89.043 356.174,89.043 356.174,189.217 256,189.217 256,89.043 222.609,89.043 222.609,189.217 100.174,189.217 100.174,222.609 222.609,222.609 222.609,356.174 256,356.174 256,222.609 356.174,222.609 356.174,356.174 389.565,356.174 389.565,222.609 512,222.609 "></polygon> <rect width="66.783" height="33.391"></rect> <rect x="200.348" y="478.609" width="55.652" height="33.391"></rect> <rect x="389.565" y="478.609" width="55.652" height="33.391"></rect> <rect x="445.217" y="422.957" width="33.391" height="55.652"></rect> <polygon points="200.348,478.609 200.348,422.957 256,422.957 256,478.609 289.391,478.609 289.391,422.957 356.174,422.957 356.174,478.609 389.565,478.609 389.565,422.957 445.217,422.957 445.217,389.565 389.565,389.565 256,389.565 200.348,389.565 166.957,389.565 166.957,478.609 "></polygon> <polygon points="100.174,89.043 100.174,33.391 66.783,33.391 66.783,122.435 100.174,122.435 100.174,222.609 133.565,222.609 133.565,122.435 478.609,122.435 478.609,222.609 512,222.609 512,89.043 "></polygon> <rect x="445.217" y="222.609" width="33.391" height="100.174"></rect> <polygon points="166.957,322.783 166.957,222.609 133.565,222.609 133.565,389.565 166.957,389.565 166.957,356.174 445.217,356.174 445.217,322.783 "></polygon> </g></svg>
